<?xml version="1.0" encoding="UTF-8" standalone="no"?>
<!DOCTYPE svg PUBLIC "-//W3C//DTD SVG 1.1//EN"
 "http://www.w3.org/Graphics/SVG/1.1/DTD/svg11.dtd">
<!-- Generated by graphviz version 2.40.1 (20161225.0304)
 -->
<!-- Title: filtered&#45;table&#45;columns.list Pages: 1 -->
<svg width="751pt" height="1902pt"
 viewBox="0.00 0.00 751.00 1901.98" xmlns="http://www.w3.org/2000/svg" xmlns:xlink="http://www.w3.org/1999/xlink">
<g id="graph0" class="graph" transform="scale(1 1) rotate(0) translate(4 1897.9794)">
<title>filtered&#45;table&#45;columns.list</title>
<polygon fill="#ffffff" stroke="transparent" points="-4,4 -4,-1897.9794 747,-1897.9794 747,4 -4,4"/>
<!-- condition_occurrence -->
<g id="node1" class="node">
<title>condition_occurrence</title>
<path fill="none" stroke="#000000" d="M14.5,-1568C14.5,-1568 173.5,-1568 173.5,-1568 179.5,-1568 185.5,-1574 185.5,-1580 185.5,-1580 185.5,-1832 185.5,-1832 185.5,-1838 179.5,-1844 173.5,-1844 173.5,-1844 14.5,-1844 14.5,-1844 8.5,-1844 2.5,-1838 2.5,-1832 2.5,-1832 2.5,-1580 2.5,-1580 2.5,-1574 8.5,-1568 14.5,-1568"/>
<text text-anchor="middle" x="94" y="-1828.8" font-family="Times,serif" font-size="14.00" fill="#000000">condition_occurrence</text>
<polyline fill="none" stroke="#000000" points="2.5,-1821 185.5,-1821 "/>
<text text-anchor="middle" x="94" y="-1805.8" font-family="Times,serif" font-size="14.00" fill="#000000">condition_occurrence_id</text>
<polyline fill="none" stroke="#000000" points="2.5,-1798 185.5,-1798 "/>
<text text-anchor="middle" x="94" y="-1782.8" font-family="Times,serif" font-size="14.00" fill="#000000">person_id</text>
<polyline fill="none" stroke="#000000" points="2.5,-1775 185.5,-1775 "/>
<text text-anchor="middle" x="94" y="-1759.8" font-family="Times,serif" font-size="14.00" fill="#000000">condition_concept_id</text>
<polyline fill="none" stroke="#000000" points="2.5,-1752 185.5,-1752 "/>
<text text-anchor="middle" x="94" y="-1736.8" font-family="Times,serif" font-size="14.00" fill="#000000">condition_start_date</text>
<polyline fill="none" stroke="#000000" points="2.5,-1729 185.5,-1729 "/>
<text text-anchor="middle" x="94" y="-1713.8" font-family="Times,serif" font-size="14.00" fill="#000000">condition_start_datetime</text>
<polyline fill="none" stroke="#000000" points="2.5,-1706 185.5,-1706 "/>
<text text-anchor="middle" x="94" y="-1690.8" font-family="Times,serif" font-size="14.00" fill="#000000">condition_end_date</text>
<polyline fill="none" stroke="#000000" points="2.5,-1683 185.5,-1683 "/>
<text text-anchor="middle" x="94" y="-1667.8" font-family="Times,serif" font-size="14.00" fill="#000000">condition_end_datetime</text>
<polyline fill="none" stroke="#000000" points="2.5,-1660 185.5,-1660 "/>
<text text-anchor="middle" x="94" y="-1644.8" font-family="Times,serif" font-size="14.00" fill="#000000">condition_type_concept_id</text>
<polyline fill="none" stroke="#000000" points="2.5,-1637 185.5,-1637 "/>
<text text-anchor="middle" x="94" y="-1621.8" font-family="Times,serif" font-size="14.00" fill="#000000">condition_source_concept_id</text>
<polyline fill="none" stroke="#000000" points="2.5,-1614 185.5,-1614 "/>
<text text-anchor="middle" x="94" y="-1598.8" font-family="Times,serif" font-size="14.00" fill="#000000">condition_status_source_value</text>
<polyline fill="none" stroke="#000000" points="2.5,-1591 185.5,-1591 "/>
<text text-anchor="middle" x="94" y="-1575.8" font-family="Times,serif" font-size="14.00" fill="#000000">condition_status_concept_id</text>
</g>
<!-- condition_era -->
<g id="node11" class="node">
<title>condition_era</title>
<path fill="none" stroke="#000000" d="M250,-1683.5C250,-1683.5 396,-1683.5 396,-1683.5 402,-1683.5 408,-1689.5 408,-1695.5 408,-1695.5 408,-1832.5 408,-1832.5 408,-1838.5 402,-1844.5 396,-1844.5 396,-1844.5 250,-1844.5 250,-1844.5 244,-1844.5 238,-1838.5 238,-1832.5 238,-1832.5 238,-1695.5 238,-1695.5 238,-1689.5 244,-1683.5 250,-1683.5"/>
<text text-anchor="middle" x="323" y="-1829.3" font-family="Times,serif" font-size="14.00" fill="#000000">condition_era</text>
<polyline fill="none" stroke="#000000" points="238,-1821.5 408,-1821.5 "/>
<text text-anchor="middle" x="323" y="-1806.3" font-family="Times,serif" font-size="14.00" fill="#000000">condition_era_id</text>
<polyline fill="none" stroke="#000000" points="238,-1798.5 408,-1798.5 "/>
<text text-anchor="middle" x="323" y="-1783.3" font-family="Times,serif" font-size="14.00" fill="#000000">person_id</text>
<polyline fill="none" stroke="#000000" points="238,-1775.5 408,-1775.5 "/>
<text text-anchor="middle" x="323" y="-1760.3" font-family="Times,serif" font-size="14.00" fill="#000000">condition_concept_id</text>
<polyline fill="none" stroke="#000000" points="238,-1752.5 408,-1752.5 "/>
<text text-anchor="middle" x="323" y="-1737.3" font-family="Times,serif" font-size="14.00" fill="#000000">condition_era_start_date</text>
<polyline fill="none" stroke="#000000" points="238,-1729.5 408,-1729.5 "/>
<text text-anchor="middle" x="323" y="-1714.3" font-family="Times,serif" font-size="14.00" fill="#000000">condition_era_end_date</text>
<polyline fill="none" stroke="#000000" points="238,-1706.5 408,-1706.5 "/>
<text text-anchor="middle" x="323" y="-1691.3" font-family="Times,serif" font-size="14.00" fill="#000000">condition_occurrence_count</text>
</g>
<!-- condition_occurrence&#45;&gt;condition_era -->
<g id="edge13" class="edge">
<title>condition_occurrence:condition_concept_id&#45;&gt;condition_era:condition_concept_id</title>
<path fill="none" stroke="#c0c0c0" d="M186,-1764C205.3194,-1764 212.5265,-1764 227.8716,-1764"/>
<polygon fill="#c0c0c0" stroke="#c0c0c0" points="228,-1767.5001 238,-1764 228,-1760.5001 228,-1767.5001"/>
</g>
<!-- person -->
<g id="node12" class="node">
<title>person</title>
<path fill="none" stroke="#000000" d="M470,-714.5C470,-714.5 618,-714.5 618,-714.5 624,-714.5 630,-720.5 630,-726.5 630,-726.5 630,-1001.5 630,-1001.5 630,-1007.5 624,-1013.5 618,-1013.5 618,-1013.5 470,-1013.5 470,-1013.5 464,-1013.5 458,-1007.5 458,-1001.5 458,-1001.5 458,-726.5 458,-726.5 458,-720.5 464,-714.5 470,-714.5"/>
<text text-anchor="middle" x="544" y="-998.3" font-family="Times,serif" font-size="14.00" fill="#000000">person</text>
<polyline fill="none" stroke="#000000" points="458,-990.5 630,-990.5 "/>
<text text-anchor="middle" x="544" y="-975.3" font-family="Times,serif" font-size="14.00" fill="#000000">person_id</text>
<polyline fill="none" stroke="#000000" points="458,-967.5 630,-967.5 "/>
<text text-anchor="middle" x="544" y="-952.3" font-family="Times,serif" font-size="14.00" fill="#000000">gender_concept_id</text>
<polyline fill="none" stroke="#000000" points="458,-944.5 630,-944.5 "/>
<text text-anchor="middle" x="544" y="-929.3" font-family="Times,serif" font-size="14.00" fill="#000000">year_of_birth</text>
<polyline fill="none" stroke="#000000" points="458,-921.5 630,-921.5 "/>
<text text-anchor="middle" x="544" y="-906.3" font-family="Times,serif" font-size="14.00" fill="#000000">month_of_birth</text>
<polyline fill="none" stroke="#000000" points="458,-898.5 630,-898.5 "/>
<text text-anchor="middle" x="544" y="-883.3" font-family="Times,serif" font-size="14.00" fill="#000000">day_of_birth</text>
<polyline fill="none" stroke="#000000" points="458,-875.5 630,-875.5 "/>
<text text-anchor="middle" x="544" y="-860.3" font-family="Times,serif" font-size="14.00" fill="#000000">birth_datetime</text>
<polyline fill="none" stroke="#000000" points="458,-852.5 630,-852.5 "/>
<text text-anchor="middle" x="544" y="-837.3" font-family="Times,serif" font-size="14.00" fill="#000000">race_concept_id</text>
<polyline fill="none" stroke="#000000" points="458,-829.5 630,-829.5 "/>
<text text-anchor="middle" x="544" y="-814.3" font-family="Times,serif" font-size="14.00" fill="#000000">ethnicity_concept_id</text>
<polyline fill="none" stroke="#000000" points="458,-806.5 630,-806.5 "/>
<text text-anchor="middle" x="544" y="-791.3" font-family="Times,serif" font-size="14.00" fill="#000000">location_id</text>
<polyline fill="none" stroke="#000000" points="458,-783.5 630,-783.5 "/>
<text text-anchor="middle" x="544" y="-768.3" font-family="Times,serif" font-size="14.00" fill="#000000">gender_source_value</text>
<polyline fill="none" stroke="#000000" points="458,-760.5 630,-760.5 "/>
<text text-anchor="middle" x="544" y="-745.3" font-family="Times,serif" font-size="14.00" fill="#000000">race_source_concept_id</text>
<polyline fill="none" stroke="#000000" points="458,-737.5 630,-737.5 "/>
<text text-anchor="middle" x="544" y="-722.3" font-family="Times,serif" font-size="14.00" fill="#000000">ethnicity_source_concept_id</text>
</g>
<!-- condition_occurrence&#45;&gt;person -->
<g id="edge1" class="edge">
<title>condition_occurrence:person_id&#45;&gt;person:person_id</title>
<path fill="none" stroke="#000000" d="M186,-1787C220.2338,-1787 194.4186,-1836.7695 224,-1854 300.0409,-1898.2921 358.5085,-1914.933 422,-1854 455.1827,-1822.1545 414.3231,-1068.6031 450.8537,-986.2787"/>
<polygon fill="#000000" stroke="#000000" points="453.4916,-988.5877 458,-979 448.4966,-983.6836 453.4916,-988.5877"/>
</g>
<!-- procedure_occurrence -->
<g id="node2" class="node">
<title>procedure_occurrence</title>
<path fill="none" stroke="#000000" d="M245.5,-1480C245.5,-1480 400.5,-1480 400.5,-1480 406.5,-1480 412.5,-1486 412.5,-1492 412.5,-1492 412.5,-1652 412.5,-1652 412.5,-1658 406.5,-1664 400.5,-1664 400.5,-1664 245.5,-1664 245.5,-1664 239.5,-1664 233.5,-1658 233.5,-1652 233.5,-1652 233.5,-1492 233.5,-1492 233.5,-1486 239.5,-1480 245.5,-1480"/>
<text text-anchor="middle" x="323" y="-1648.8" font-family="Times,serif" font-size="14.00" fill="#000000">procedure_occurrence</text>
<polyline fill="none" stroke="#000000" points="233.5,-1641 412.5,-1641 "/>
<text text-anchor="middle" x="323" y="-1625.8" font-family="Times,serif" font-size="14.00" fill="#000000">procedure_occurrence_id</text>
<polyline fill="none" stroke="#000000" points="233.5,-1618 412.5,-1618 "/>
<text text-anchor="middle" x="323" y="-1602.8" font-family="Times,serif" font-size="14.00" fill="#000000">person_id</text>
<polyline fill="none" stroke="#000000" points="233.5,-1595 412.5,-1595 "/>
<text text-anchor="middle" x="323" y="-1579.8" font-family="Times,serif" font-size="14.00" fill="#000000">procedure_concept_id</text>
<polyline fill="none" stroke="#000000" points="233.5,-1572 412.5,-1572 "/>
<text text-anchor="middle" x="323" y="-1556.8" font-family="Times,serif" font-size="14.00" fill="#000000">procedure_date</text>
<polyline fill="none" stroke="#000000" points="233.5,-1549 412.5,-1549 "/>
<text text-anchor="middle" x="323" y="-1533.8" font-family="Times,serif" font-size="14.00" fill="#000000">procedure_datetime</text>
<polyline fill="none" stroke="#000000" points="233.5,-1526 412.5,-1526 "/>
<text text-anchor="middle" x="323" y="-1510.8" font-family="Times,serif" font-size="14.00" fill="#000000">procedure_type_concept_id</text>
<polyline fill="none" stroke="#000000" points="233.5,-1503 412.5,-1503 "/>
<text text-anchor="middle" x="323" y="-1487.8" font-family="Times,serif" font-size="14.00" fill="#000000">procedure_source_concept_id</text>
</g>
<!-- procedure_occurrence&#45;&gt;person -->
<g id="edge2" class="edge">
<title>procedure_occurrence:person_id&#45;&gt;person:person_id</title>
<path fill="none" stroke="#000000" d="M413,-1607C479.5408,-1607 396.9191,-1038.8309 448.8933,-983.3456"/>
<polygon fill="#000000" stroke="#000000" points="450.4822,-986.4655 458,-979 447.4675,-980.1479 450.4822,-986.4655"/>
</g>
<!-- observation -->
<g id="node3" class="node">
<title>observation</title>
<path fill="none" stroke="#000000" d="M12,-1101.5C12,-1101.5 176,-1101.5 176,-1101.5 182,-1101.5 188,-1107.5 188,-1113.5 188,-1113.5 188,-1388.5 188,-1388.5 188,-1394.5 182,-1400.5 176,-1400.5 176,-1400.5 12,-1400.5 12,-1400.5 6,-1400.5 0,-1394.5 0,-1388.5 0,-1388.5 0,-1113.5 0,-1113.5 0,-1107.5 6,-1101.5 12,-1101.5"/>
<text text-anchor="middle" x="94" y="-1385.3" font-family="Times,serif" font-size="14.00" fill="#000000">observation</text>
<polyline fill="none" stroke="#000000" points="0,-1377.5 188,-1377.5 "/>
<text text-anchor="middle" x="94" y="-1362.3" font-family="Times,serif" font-size="14.00" fill="#000000">observation_id</text>
<polyline fill="none" stroke="#000000" points="0,-1354.5 188,-1354.5 "/>
<text text-anchor="middle" x="94" y="-1339.3" font-family="Times,serif" font-size="14.00" fill="#000000">person_id</text>
<polyline fill="none" stroke="#000000" points="0,-1331.5 188,-1331.5 "/>
<text text-anchor="middle" x="94" y="-1316.3" font-family="Times,serif" font-size="14.00" fill="#000000">observation_concept_id</text>
<polyline fill="none" stroke="#000000" points="0,-1308.5 188,-1308.5 "/>
<text text-anchor="middle" x="94" y="-1293.3" font-family="Times,serif" font-size="14.00" fill="#000000">observation_date</text>
<polyline fill="none" stroke="#000000" points="0,-1285.5 188,-1285.5 "/>
<text text-anchor="middle" x="94" y="-1270.3" font-family="Times,serif" font-size="14.00" fill="#000000">observation_datetime</text>
<polyline fill="none" stroke="#000000" points="0,-1262.5 188,-1262.5 "/>
<text text-anchor="middle" x="94" y="-1247.3" font-family="Times,serif" font-size="14.00" fill="#000000">observation_type_concept_id</text>
<polyline fill="none" stroke="#000000" points="0,-1239.5 188,-1239.5 "/>
<text text-anchor="middle" x="94" y="-1224.3" font-family="Times,serif" font-size="14.00" fill="#000000">value_as_number</text>
<polyline fill="none" stroke="#000000" points="0,-1216.5 188,-1216.5 "/>
<text text-anchor="middle" x="94" y="-1201.3" font-family="Times,serif" font-size="14.00" fill="#000000">value_as_string</text>
<polyline fill="none" stroke="#000000" points="0,-1193.5 188,-1193.5 "/>
<text text-anchor="middle" x="94" y="-1178.3" font-family="Times,serif" font-size="14.00" fill="#000000">value_as_concept_id</text>
<polyline fill="none" stroke="#000000" points="0,-1170.5 188,-1170.5 "/>
<text text-anchor="middle" x="94" y="-1155.3" font-family="Times,serif" font-size="14.00" fill="#000000">unit_concept_id</text>
<polyline fill="none" stroke="#000000" points="0,-1147.5 188,-1147.5 "/>
<text text-anchor="middle" x="94" y="-1132.3" font-family="Times,serif" font-size="14.00" fill="#000000">observation_source_concept_id</text>
<polyline fill="none" stroke="#000000" points="0,-1124.5 188,-1124.5 "/>
<text text-anchor="middle" x="94" y="-1109.3" font-family="Times,serif" font-size="14.00" fill="#000000">unit_source_value</text>
</g>
<!-- observation&#45;&gt;person -->
<g id="edge3" class="edge">
<title>observation:person_id&#45;&gt;person:person_id</title>
<path fill="none" stroke="#000000" d="M188,-1343C231.0813,-1343 188.3258,-1408.8474 224,-1433 260.435,-1457.6677 389.681,-1462.8577 422,-1433 456.7006,-1400.942 413.8809,-1033.0371 449.2173,-984.3161"/>
<polygon fill="#000000" stroke="#000000" points="451.2575,-987.1725 458,-979 447.6327,-981.1841 451.2575,-987.1725"/>
</g>
<!-- measurement -->
<g id="node13" class="node">
<title>measurement</title>
<path fill="none" stroke="#000000" d="M236,-1032.5C236,-1032.5 410,-1032.5 410,-1032.5 416,-1032.5 422,-1038.5 422,-1044.5 422,-1044.5 422,-1411.5 422,-1411.5 422,-1417.5 416,-1423.5 410,-1423.5 410,-1423.5 236,-1423.5 236,-1423.5 230,-1423.5 224,-1417.5 224,-1411.5 224,-1411.5 224,-1044.5 224,-1044.5 224,-1038.5 230,-1032.5 236,-1032.5"/>
<text text-anchor="middle" x="323" y="-1408.3" font-family="Times,serif" font-size="14.00" fill="#000000">measurement</text>
<polyline fill="none" stroke="#000000" points="224,-1400.5 422,-1400.5 "/>
<text text-anchor="middle" x="323" y="-1385.3" font-family="Times,serif" font-size="14.00" fill="#000000">measurement_id</text>
<polyline fill="none" stroke="#000000" points="224,-1377.5 422,-1377.5 "/>
<text text-anchor="middle" x="323" y="-1362.3" font-family="Times,serif" font-size="14.00" fill="#000000">person_id</text>
<polyline fill="none" stroke="#000000" points="224,-1354.5 422,-1354.5 "/>
<text text-anchor="middle" x="323" y="-1339.3" font-family="Times,serif" font-size="14.00" fill="#000000">measurement_concept_id</text>
<polyline fill="none" stroke="#000000" points="224,-1331.5 422,-1331.5 "/>
<text text-anchor="middle" x="323" y="-1316.3" font-family="Times,serif" font-size="14.00" fill="#000000">measurement_date</text>
<polyline fill="none" stroke="#000000" points="224,-1308.5 422,-1308.5 "/>
<text text-anchor="middle" x="323" y="-1293.3" font-family="Times,serif" font-size="14.00" fill="#000000">measurement_datetime</text>
<polyline fill="none" stroke="#000000" points="224,-1285.5 422,-1285.5 "/>
<text text-anchor="middle" x="323" y="-1270.3" font-family="Times,serif" font-size="14.00" fill="#000000">measurement_time</text>
<polyline fill="none" stroke="#000000" points="224,-1262.5 422,-1262.5 "/>
<text text-anchor="middle" x="323" y="-1247.3" font-family="Times,serif" font-size="14.00" fill="#000000">measurement_type_concept_id</text>
<polyline fill="none" stroke="#000000" points="224,-1239.5 422,-1239.5 "/>
<text text-anchor="middle" x="323" y="-1224.3" font-family="Times,serif" font-size="14.00" fill="#000000">operator_concept_id</text>
<polyline fill="none" stroke="#000000" points="224,-1216.5 422,-1216.5 "/>
<text text-anchor="middle" x="323" y="-1201.3" font-family="Times,serif" font-size="14.00" fill="#000000">value_as_number</text>
<polyline fill="none" stroke="#000000" points="224,-1193.5 422,-1193.5 "/>
<text text-anchor="middle" x="323" y="-1178.3" font-family="Times,serif" font-size="14.00" fill="#000000">value_as_concept_id</text>
<polyline fill="none" stroke="#000000" points="224,-1170.5 422,-1170.5 "/>
<text text-anchor="middle" x="323" y="-1155.3" font-family="Times,serif" font-size="14.00" fill="#000000">unit_concept_id</text>
<polyline fill="none" stroke="#000000" points="224,-1147.5 422,-1147.5 "/>
<text text-anchor="middle" x="323" y="-1132.3" font-family="Times,serif" font-size="14.00" fill="#000000">range_low</text>
<polyline fill="none" stroke="#000000" points="224,-1124.5 422,-1124.5 "/>
<text text-anchor="middle" x="323" y="-1109.3" font-family="Times,serif" font-size="14.00" fill="#000000">range_high</text>
<polyline fill="none" stroke="#000000" points="224,-1101.5 422,-1101.5 "/>
<text text-anchor="middle" x="323" y="-1086.3" font-family="Times,serif" font-size="14.00" fill="#000000">measurement_source_concept_id</text>
<polyline fill="none" stroke="#000000" points="224,-1078.5 422,-1078.5 "/>
<text text-anchor="middle" x="323" y="-1063.3" font-family="Times,serif" font-size="14.00" fill="#000000">unit_source_value</text>
<polyline fill="none" stroke="#000000" points="224,-1055.5 422,-1055.5 "/>
<text text-anchor="middle" x="323" y="-1040.3" font-family="Times,serif" font-size="14.00" fill="#000000">value_source_value</text>
</g>
<!-- observation&#45;&gt;measurement -->
<g id="edge14" class="edge">
<title>observation:value_as_concept_id&#45;&gt;measurement:value_as_concept_id</title>
<path fill="none" stroke="#c0c0c0" d="M188,-1182C200,-1182 205.25,-1182 213.875,-1182"/>
<polygon fill="#c0c0c0" stroke="#c0c0c0" points="214,-1185.5001 224,-1182 214,-1178.5001 214,-1185.5001"/>
</g>
<!-- observation&#45;&gt;measurement -->
<g id="edge15" class="edge">
<title>observation:unit_concept_id&#45;&gt;measurement:unit_concept_id</title>
<path fill="none" stroke="#c0c0c0" d="M188,-1159C200,-1159 205.25,-1159 213.875,-1159"/>
<polygon fill="#c0c0c0" stroke="#c0c0c0" points="214,-1162.5001 224,-1159 214,-1155.5001 214,-1162.5001"/>
</g>
<!-- visit_occurrence -->
<g id="node4" class="node">
<title>visit_occurrence</title>
<path fill="none" stroke="#000000" d="M261,-829C261,-829 385,-829 385,-829 391,-829 397,-835 397,-841 397,-841 397,-1001 397,-1001 397,-1007 391,-1013 385,-1013 385,-1013 261,-1013 261,-1013 255,-1013 249,-1007 249,-1001 249,-1001 249,-841 249,-841 249,-835 255,-829 261,-829"/>
<text text-anchor="middle" x="323" y="-997.8" font-family="Times,serif" font-size="14.00" fill="#000000">visit_occurrence</text>
<polyline fill="none" stroke="#000000" points="249,-990 397,-990 "/>
<text text-anchor="middle" x="323" y="-974.8" font-family="Times,serif" font-size="14.00" fill="#000000">person_id</text>
<polyline fill="none" stroke="#000000" points="249,-967 397,-967 "/>
<text text-anchor="middle" x="323" y="-951.8" font-family="Times,serif" font-size="14.00" fill="#000000">visit_concept_id</text>
<polyline fill="none" stroke="#000000" points="249,-944 397,-944 "/>
<text text-anchor="middle" x="323" y="-928.8" font-family="Times,serif" font-size="14.00" fill="#000000">visit_start_date</text>
<polyline fill="none" stroke="#000000" points="249,-921 397,-921 "/>
<text text-anchor="middle" x="323" y="-905.8" font-family="Times,serif" font-size="14.00" fill="#000000">visit_start_datetime</text>
<polyline fill="none" stroke="#000000" points="249,-898 397,-898 "/>
<text text-anchor="middle" x="323" y="-882.8" font-family="Times,serif" font-size="14.00" fill="#000000">visit_end_date</text>
<polyline fill="none" stroke="#000000" points="249,-875 397,-875 "/>
<text text-anchor="middle" x="323" y="-859.8" font-family="Times,serif" font-size="14.00" fill="#000000">visit_end_datetime</text>
<polyline fill="none" stroke="#000000" points="249,-852 397,-852 "/>
<text text-anchor="middle" x="323" y="-836.8" font-family="Times,serif" font-size="14.00" fill="#000000">visit_source_concept_id</text>
</g>
<!-- visit_occurrence&#45;&gt;person -->
<g id="edge4" class="edge">
<title>visit_occurrence:person_id&#45;&gt;person:person_id</title>
<path fill="none" stroke="#000000" d="M397,-979C420.4045,-979 428.6555,-979 447.9165,-979"/>
<polygon fill="#000000" stroke="#000000" points="448,-982.5001 458,-979 448,-975.5001 448,-982.5001"/>
</g>
<!-- location -->
<g id="node5" class="node">
<title>location</title>
<path fill="none" stroke="#000000" d="M678,-784C678,-784 731,-784 731,-784 737,-784 743,-790 743,-796 743,-796 743,-818 743,-818 743,-824 737,-830 731,-830 731,-830 678,-830 678,-830 672,-830 666,-824 666,-818 666,-818 666,-796 666,-796 666,-790 672,-784 678,-784"/>
<text text-anchor="middle" x="704.5" y="-814.8" font-family="Times,serif" font-size="14.00" fill="#000000">location</text>
<polyline fill="none" stroke="#000000" points="666,-807 743,-807 "/>
<text text-anchor="middle" x="704.5" y="-791.8" font-family="Times,serif" font-size="14.00" fill="#000000">location_id</text>
</g>
<!-- observation_period -->
<g id="node6" class="node">
<title>observation_period</title>
<path fill="none" stroke="#000000" d="M245,-694.5C245,-694.5 401,-694.5 401,-694.5 407,-694.5 413,-700.5 413,-706.5 413,-706.5 413,-797.5 413,-797.5 413,-803.5 407,-809.5 401,-809.5 401,-809.5 245,-809.5 245,-809.5 239,-809.5 233,-803.5 233,-797.5 233,-797.5 233,-706.5 233,-706.5 233,-700.5 239,-694.5 245,-694.5"/>
<text text-anchor="middle" x="323" y="-794.3" font-family="Times,serif" font-size="14.00" fill="#000000">observation_period</text>
<polyline fill="none" stroke="#000000" points="233,-786.5 413,-786.5 "/>
<text text-anchor="middle" x="323" y="-771.3" font-family="Times,serif" font-size="14.00" fill="#000000">observation_period_id</text>
<polyline fill="none" stroke="#000000" points="233,-763.5 413,-763.5 "/>
<text text-anchor="middle" x="323" y="-748.3" font-family="Times,serif" font-size="14.00" fill="#000000">person_id</text>
<polyline fill="none" stroke="#000000" points="233,-740.5 413,-740.5 "/>
<text text-anchor="middle" x="323" y="-725.3" font-family="Times,serif" font-size="14.00" fill="#000000">observation_period_start_date</text>
<polyline fill="none" stroke="#000000" points="233,-717.5 413,-717.5 "/>
<text text-anchor="middle" x="323" y="-702.3" font-family="Times,serif" font-size="14.00" fill="#000000">observation_period_end_date</text>
</g>
<!-- observation_period&#45;&gt;person -->
<g id="edge5" class="edge">
<title>observation_period:person_id&#45;&gt;person:person_id</title>
<path fill="none" stroke="#000000" d="M413,-752C460.6093,-752 414.5594,-946.5551 448.2662,-975.4344"/>
<polygon fill="#000000" stroke="#000000" points="447.4063,-978.8468 458,-979 449.814,-972.2739 447.4063,-978.8468"/>
</g>
<!-- goldstandard -->
<g id="node7" class="node">
<title>goldstandard</title>
<path fill="none" stroke="#000000" d="M292,-606.5C292,-606.5 354,-606.5 354,-606.5 360,-606.5 366,-612.5 366,-618.5 366,-618.5 366,-663.5 366,-663.5 366,-669.5 360,-675.5 354,-675.5 354,-675.5 292,-675.5 292,-675.5 286,-675.5 280,-669.5 280,-663.5 280,-663.5 280,-618.5 280,-618.5 280,-612.5 286,-606.5 292,-606.5"/>
<text text-anchor="middle" x="323" y="-660.3" font-family="Times,serif" font-size="14.00" fill="#000000">goldstandard</text>
<polyline fill="none" stroke="#000000" points="280,-652.5 366,-652.5 "/>
<text text-anchor="middle" x="323" y="-637.3" font-family="Times,serif" font-size="14.00" fill="#000000">person_id</text>
<polyline fill="none" stroke="#000000" points="280,-629.5 366,-629.5 "/>
<text text-anchor="middle" x="323" y="-614.3" font-family="Times,serif" font-size="14.00" fill="#000000">status</text>
</g>
<!-- goldstandard&#45;&gt;person -->
<g id="edge6" class="edge">
<title>goldstandard:person_id&#45;&gt;person:person_id</title>
<path fill="none" stroke="#000000" d="M366,-641C397.6524,-641 406.456,-657.4272 422,-685 452.493,-739.0901 398.9155,-952.7659 448.0067,-976.7978"/>
<polygon fill="#000000" stroke="#000000" points="447.4811,-980.2659 458,-979 448.9875,-973.4299 447.4811,-980.2659"/>
</g>
<!-- drug_era -->
<g id="node8" class="node">
<title>drug_era</title>
<path fill="none" stroke="#000000" d="M39,-388.5C39,-388.5 149,-388.5 149,-388.5 155,-388.5 161,-394.5 161,-400.5 161,-400.5 161,-537.5 161,-537.5 161,-543.5 155,-549.5 149,-549.5 149,-549.5 39,-549.5 39,-549.5 33,-549.5 27,-543.5 27,-537.5 27,-537.5 27,-400.5 27,-400.5 27,-394.5 33,-388.5 39,-388.5"/>
<text text-anchor="middle" x="94" y="-534.3" font-family="Times,serif" font-size="14.00" fill="#000000">drug_era</text>
<polyline fill="none" stroke="#000000" points="27,-526.5 161,-526.5 "/>
<text text-anchor="middle" x="94" y="-511.3" font-family="Times,serif" font-size="14.00" fill="#000000">drug_era_id</text>
<polyline fill="none" stroke="#000000" points="27,-503.5 161,-503.5 "/>
<text text-anchor="middle" x="94" y="-488.3" font-family="Times,serif" font-size="14.00" fill="#000000">person_id</text>
<polyline fill="none" stroke="#000000" points="27,-480.5 161,-480.5 "/>
<text text-anchor="middle" x="94" y="-465.3" font-family="Times,serif" font-size="14.00" fill="#000000">drug_concept_id</text>
<polyline fill="none" stroke="#000000" points="27,-457.5 161,-457.5 "/>
<text text-anchor="middle" x="94" y="-442.3" font-family="Times,serif" font-size="14.00" fill="#000000">drug_era_start_date</text>
<polyline fill="none" stroke="#000000" points="27,-434.5 161,-434.5 "/>
<text text-anchor="middle" x="94" y="-419.3" font-family="Times,serif" font-size="14.00" fill="#000000">drug_era_end_date</text>
<polyline fill="none" stroke="#000000" points="27,-411.5 161,-411.5 "/>
<text text-anchor="middle" x="94" y="-396.3" font-family="Times,serif" font-size="14.00" fill="#000000">drug_exposure_count</text>
</g>
<!-- drug_exposure -->
<g id="node10" class="node">
<title>drug_exposure</title>
<path fill="none" stroke="#000000" d="M244.5,-181C244.5,-181 401.5,-181 401.5,-181 407.5,-181 413.5,-187 413.5,-193 413.5,-193 413.5,-537 413.5,-537 413.5,-543 407.5,-549 401.5,-549 401.5,-549 244.5,-549 244.5,-549 238.5,-549 232.5,-543 232.5,-537 232.5,-537 232.5,-193 232.5,-193 232.5,-187 238.5,-181 244.5,-181"/>
<text text-anchor="middle" x="323" y="-533.8" font-family="Times,serif" font-size="14.00" fill="#000000">drug_exposure</text>
<polyline fill="none" stroke="#000000" points="232.5,-526 413.5,-526 "/>
<text text-anchor="middle" x="323" y="-510.8" font-family="Times,serif" font-size="14.00" fill="#000000">drug_exposure_id</text>
<polyline fill="none" stroke="#000000" points="232.5,-503 413.5,-503 "/>
<text text-anchor="middle" x="323" y="-487.8" font-family="Times,serif" font-size="14.00" fill="#000000">person_id</text>
<polyline fill="none" stroke="#000000" points="232.5,-480 413.5,-480 "/>
<text text-anchor="middle" x="323" y="-464.8" font-family="Times,serif" font-size="14.00" fill="#000000">drug_concept_id</text>
<polyline fill="none" stroke="#000000" points="232.5,-457 413.5,-457 "/>
<text text-anchor="middle" x="323" y="-441.8" font-family="Times,serif" font-size="14.00" fill="#000000">drug_exposure_start_date</text>
<polyline fill="none" stroke="#000000" points="232.5,-434 413.5,-434 "/>
<text text-anchor="middle" x="323" y="-418.8" font-family="Times,serif" font-size="14.00" fill="#000000">drug_exposure_start_datetime</text>
<polyline fill="none" stroke="#000000" points="232.5,-411 413.5,-411 "/>
<text text-anchor="middle" x="323" y="-395.8" font-family="Times,serif" font-size="14.00" fill="#000000">drug_exposure_end_date</text>
<polyline fill="none" stroke="#000000" points="232.5,-388 413.5,-388 "/>
<text text-anchor="middle" x="323" y="-372.8" font-family="Times,serif" font-size="14.00" fill="#000000">drug_exposure_end_datetime</text>
<polyline fill="none" stroke="#000000" points="232.5,-365 413.5,-365 "/>
<text text-anchor="middle" x="323" y="-349.8" font-family="Times,serif" font-size="14.00" fill="#000000">drug_type_concept_id</text>
<polyline fill="none" stroke="#000000" points="232.5,-342 413.5,-342 "/>
<text text-anchor="middle" x="323" y="-326.8" font-family="Times,serif" font-size="14.00" fill="#000000">stop_reason</text>
<polyline fill="none" stroke="#000000" points="232.5,-319 413.5,-319 "/>
<text text-anchor="middle" x="323" y="-303.8" font-family="Times,serif" font-size="14.00" fill="#000000">refills</text>
<polyline fill="none" stroke="#000000" points="232.5,-296 413.5,-296 "/>
<text text-anchor="middle" x="323" y="-280.8" font-family="Times,serif" font-size="14.00" fill="#000000">quantity</text>
<polyline fill="none" stroke="#000000" points="232.5,-273 413.5,-273 "/>
<text text-anchor="middle" x="323" y="-257.8" font-family="Times,serif" font-size="14.00" fill="#000000">days_supply</text>
<polyline fill="none" stroke="#000000" points="232.5,-250 413.5,-250 "/>
<text text-anchor="middle" x="323" y="-234.8" font-family="Times,serif" font-size="14.00" fill="#000000">drug_source_concept_id</text>
<polyline fill="none" stroke="#000000" points="232.5,-227 413.5,-227 "/>
<text text-anchor="middle" x="323" y="-211.8" font-family="Times,serif" font-size="14.00" fill="#000000">route_source_value</text>
<polyline fill="none" stroke="#000000" points="232.5,-204 413.5,-204 "/>
<text text-anchor="middle" x="323" y="-188.8" font-family="Times,serif" font-size="14.00" fill="#000000">dose_unit_source_value</text>
</g>
<!-- drug_era&#45;&gt;drug_exposure -->
<g id="edge16" class="edge">
<title>drug_era:drug_concept_id&#45;&gt;drug_exposure:drug_concept_id</title>
<path fill="none" stroke="#c0c0c0" d="M161,-469C188.8576,-469 198.2705,-469 221.8051,-469"/>
<polygon fill="#c0c0c0" stroke="#c0c0c0" points="222,-472.5001 232,-469 222,-465.5001 222,-472.5001"/>
</g>
<!-- drug_era&#45;&gt;person -->
<g id="edge7" class="edge">
<title>drug_era:person_id&#45;&gt;person:person_id</title>
<path fill="none" stroke="#000000" d="M161,-492C201.8744,-492 188.186,-539.3003 224,-559 302.5124,-602.1861 361.7405,-530.6823 422,-597 476.8763,-657.3933 381.5937,-952.0672 448.0433,-977.2793"/>
<polygon fill="#000000" stroke="#000000" points="447.55,-980.7458 458,-979 448.7422,-973.8481 447.55,-980.7458"/>
</g>
<!-- device_exposure -->
<g id="node9" class="node">
<title>device_exposure</title>
<path fill="none" stroke="#000000" d="M239.5,-.5C239.5,-.5 406.5,-.5 406.5,-.5 412.5,-.5 418.5,-6.5 418.5,-12.5 418.5,-12.5 418.5,-149.5 418.5,-149.5 418.5,-155.5 412.5,-161.5 406.5,-161.5 406.5,-161.5 239.5,-161.5 239.5,-161.5 233.5,-161.5 227.5,-155.5 227.5,-149.5 227.5,-149.5 227.5,-12.5 227.5,-12.5 227.5,-6.5 233.5,-.5 239.5,-.5"/>
<text text-anchor="middle" x="323" y="-146.3" font-family="Times,serif" font-size="14.00" fill="#000000">device_exposure</text>
<polyline fill="none" stroke="#000000" points="227.5,-138.5 418.5,-138.5 "/>
<text text-anchor="middle" x="323" y="-123.3" font-family="Times,serif" font-size="14.00" fill="#000000">device_exposure_id</text>
<polyline fill="none" stroke="#000000" points="227.5,-115.5 418.5,-115.5 "/>
<text text-anchor="middle" x="323" y="-100.3" font-family="Times,serif" font-size="14.00" fill="#000000">person_id</text>
<polyline fill="none" stroke="#000000" points="227.5,-92.5 418.5,-92.5 "/>
<text text-anchor="middle" x="323" y="-77.3" font-family="Times,serif" font-size="14.00" fill="#000000">device_exposure_start_date</text>
<polyline fill="none" stroke="#000000" points="227.5,-69.5 418.5,-69.5 "/>
<text text-anchor="middle" x="323" y="-54.3" font-family="Times,serif" font-size="14.00" fill="#000000">device_exposure_start_datetime</text>
<polyline fill="none" stroke="#000000" points="227.5,-46.5 418.5,-46.5 "/>
<text text-anchor="middle" x="323" y="-31.3" font-family="Times,serif" font-size="14.00" fill="#000000">device_exposure_end_date</text>
<polyline fill="none" stroke="#000000" points="227.5,-23.5 418.5,-23.5 "/>
<text text-anchor="middle" x="323" y="-8.3" font-family="Times,serif" font-size="14.00" fill="#000000">device_exposure_end_datetime</text>
</g>
<!-- device_exposure&#45;&gt;person -->
<g id="edge8" class="edge">
<title>device_exposure:person_id&#45;&gt;person:person_id</title>
<path fill="none" stroke="#000000" d="M419,-104C512.7073,-104 371.8841,-915.2636 448.1849,-975.4745"/>
<polygon fill="#000000" stroke="#000000" points="447.4055,-978.9135 458,-979 449.7719,-972.3256 447.4055,-978.9135"/>
</g>
<!-- drug_exposure&#45;&gt;drug_era -->
<g id="edge17" class="edge">
<title>drug_exposure:drug_concept_id&#45;&gt;drug_era:drug_concept_id</title>
<path fill="none" stroke="#c0c0c0" d="M232,-469C204.1424,-469 194.7295,-469 171.1949,-469"/>
<polygon fill="#c0c0c0" stroke="#c0c0c0" points="171,-465.5001 161,-469 171,-472.5001 171,-465.5001"/>
</g>
<!-- drug_exposure&#45;&gt;person -->
<g id="edge9" class="edge">
<title>drug_exposure:person_id&#45;&gt;person:person_id</title>
<path fill="none" stroke="#000000" d="M414,-492C465.0419,-492 411.0625,-921.8126 449.387,-973.8603"/>
<polygon fill="#000000" stroke="#000000" points="447.6192,-976.8811 458,-979 451.2063,-970.87 447.6192,-976.8811"/>
</g>
<!-- condition_era&#45;&gt;condition_occurrence -->
<g id="edge18" class="edge">
<title>condition_era:condition_concept_id&#45;&gt;condition_occurrence:condition_concept_id</title>
<path fill="none" stroke="#c0c0c0" d="M238,-1764C218.6806,-1764 211.4735,-1764 196.1284,-1764"/>
<polygon fill="#c0c0c0" stroke="#c0c0c0" points="196,-1760.5001 186,-1764 196,-1767.5001 196,-1760.5001"/>
</g>
<!-- condition_era&#45;&gt;person -->
<g id="edge10" class="edge">
<title>condition_era:person_id&#45;&gt;person:person_id</title>
<path fill="none" stroke="#000000" d="M408,-1787C494.4359,-1787 377.8634,-1040.8921 448.4392,-982.6024"/>
<polygon fill="#000000" stroke="#000000" points="449.8763,-985.8012 458,-979 447.4081,-979.2508 449.8763,-985.8012"/>
</g>
<!-- person&#45;&gt;location -->
<g id="edge11" class="edge">
<title>person:location_id&#45;&gt;location:location_id</title>
<path fill="none" stroke="#000000" d="M630,-795C642,-795 647.25,-795 655.875,-795"/>
<polygon fill="#000000" stroke="#000000" points="656,-798.5001 666,-795 656,-791.5001 656,-798.5001"/>
</g>
<!-- measurement&#45;&gt;observation -->
<g id="edge19" class="edge">
<title>measurement:value_as_concept_id&#45;&gt;observation:value_as_concept_id</title>
<path fill="none" stroke="#c0c0c0" d="M224,-1182C212,-1182 206.75,-1182 198.125,-1182"/>
<polygon fill="#c0c0c0" stroke="#c0c0c0" points="198,-1178.5001 188,-1182 198,-1185.5001 198,-1178.5001"/>
</g>
<!-- measurement&#45;&gt;observation -->
<g id="edge20" class="edge">
<title>measurement:unit_concept_id&#45;&gt;observation:unit_concept_id</title>
<path fill="none" stroke="#c0c0c0" d="M224,-1159C212,-1159 206.75,-1159 198.125,-1159"/>
<polygon fill="#c0c0c0" stroke="#c0c0c0" points="198,-1155.5001 188,-1159 198,-1162.5001 198,-1155.5001"/>
</g>
<!-- measurement&#45;&gt;person -->
<g id="edge12" class="edge">
<title>measurement:person_id&#45;&gt;person:person_id</title>
<path fill="none" stroke="#000000" d="M422,-1366C504.66,-1366 382.9681,-1011.5433 448.0666,-981.0822"/>
<polygon fill="#000000" stroke="#000000" points="448.9308,-984.4772 458,-979 447.4946,-977.6261 448.9308,-984.4772"/>
</g>
</g>
</svg>
